<svg width="22" height="22" fill="none" xmlns="http://www.w3.org/2000/svg"><path fill-rule="evenodd" clip-rule="evenodd" d="M5.664 3.802c-.16 0-.314.018-.46.052a3.91 3.91 0 0 0-.768-1.14C3.925 2.202 3.117 2 2 2v1.8c.683 0 1.075.098 1.164.186.34.34.636 1.032.636 1.614l.01.127.88 6.173c-1.475.077-2.618 1.223-2.689 2.655L2 15.5c.087 1.48 1.226 2.618 2.649 2.698h.204a2.701 2.701 0 0 0 5.093.002h2.108a2.701 2.701 0 1 0 0-1.8H9.946a2.701 2.701 0 0 0-5.092 0H4.7c-.459-.027-.87-.439-.902-.954L3.8 14.6c.024-.467.433-.876.945-.901H6.52l.013.001h9.071l.133-.042a2.362 2.362 0 0 0 1.487-1.396l.095-.187.308-.61c.319-.633.638-1.265.948-1.884.76-1.514 1.24-2.476 1.345-2.713.544-1.214-.558-2.148-1.684-2.168L5.664 3.802Zm9.628 8.098h-8.69a.153.153 0 0 1-.11-.126l-.883-6.173 12.495.894a314.03 314.03 0 0 1-1.136 2.278l-.013.026c-.297.592-.616 1.224-.934 1.854l-.308.61-.116.23-.044.103a.563.563 0 0 1-.26.304Zm-.692 6.3a.9.9 0 1 0 0-1.8.9.9 0 0 0 0 1.8Zm-6.3-.9a.9.9 0 1 1-1.8 0 .9.9 0 0 1 1.8 0Z" fill="#000"/></svg>